<?xml version="1.0" encoding="utf-8"?>
<!-- Generator: Adobe Illustrator 22.1.0, SVG Export Plug-In . SVG Version: 6.00 Build 0)  -->
<svg version="1.1" id="Layer_1" xmlns="http://www.w3.org/2000/svg" xmlns:xlink="http://www.w3.org/1999/xlink" x="0px" y="0px"
	 viewBox="0 0 577 166.7" style="enable-background:new 0 0 577 166.7;" xml:space="preserve">
<style type="text/css">
	.st0{fill:#27D7A3;}
	.st1{fill:#8EA3A9;}
</style>
<path class="st0" d="M136.5,49l-49-28.3c-2.8-1.6-6.3-1.6-9.1,0L29.3,49c-2.8,1.6-4.6,4.7-4.6,7.9v56.6c0,3.3,1.7,6.3,4.6,7.9
	l12.9,7.4v-49c0-15.7,12.8-28.5,28.5-28.5c15.7,0,28.5,12.8,28.5,28.5v12.3c0,2.9-2.3,5.2-5.2,5.2c-2.9,0-5.2-2.3-5.2-5.2V79.9
	c0-9.9-8.1-18-18-18s-18,8.1-18,18v54.6c0,0.1,0,0.3,0,0.4l25.7,14.8c1.4,0.8,3,1.2,4.6,1.2c1.6,0,3.2-0.4,4.6-1.2l49-28.3
	c2.8-1.6,4.6-4.7,4.6-7.9V57C141.1,53.7,139.3,50.7,136.5,49z M122.4,93.2c0,15.7-12.8,28.5-28.5,28.5c-15.7,0-28.5-12.8-28.5-28.5
	V80.9c0-2.9,2.3-5.2,5.2-5.2c2.9,0,5.2,2.3,5.2,5.2v12.3c0,9.9,8.1,18,18,18c9.9,0,18-8.1,18-18V74.1c0-2.9,2.3-5.2,5.2-5.2
	c2.9,0,5.2,2.3,5.2,5.2V93.2z M126.1,54.7c-0.3,0.1-8.3,1.5-8.3,8.3c0,0.4-0.3,0.6-0.6,0.6c-0.4,0-0.6-0.3-0.6-0.6
	c0-6.9-8.2-8.3-8.3-8.3c-0.3,0-0.5-0.3-0.5-0.6c0-0.3,0.2-0.6,0.5-0.6c0.3-0.1,8.3-1.5,8.3-8.3c0-0.4,0.3-0.6,0.6-0.6
	c0.4,0,0.6,0.3,0.6,0.6c0,2.9,1.5,5.2,4.4,6.8c0.2,0.1,0.4,0.2,0.6,0.3c1.8,0.9,3.3,1.1,3.3,1.1c0.3,0.1,0.5,0.3,0.5,0.6
	C126.7,54.4,126.4,54.6,126.1,54.7z"/>
<g>
	<path class="st1" d="M185,109c0,1.2-0.5,2.3-1.4,3.2c-1,0.9-2,1.3-3.2,1.3c-1.2,0-2.2-0.4-3.1-1.3c-0.9-0.9-1.3-1.9-1.3-3.2V76
		c0-1.2,0.4-2.3,1.3-3.2c0.9-0.9,1.9-1.3,3.2-1.3c1.9,0,3.3,0.9,4.1,2.6c2.7-1.7,5.7-2.6,8.9-2.6c4.9,0,9,1.7,12.4,5.2
		c3.4,3.4,5.1,7.5,5.1,12.3V109c0,1.2-0.4,2.3-1.3,3.2c-0.8,0.9-1.9,1.3-3.1,1.3c-1.2,0-2.3-0.4-3.2-1.3c-0.9-0.9-1.3-1.9-1.3-3.2
		V89c0-2.4-0.9-4.4-2.6-6c-1.7-1.7-3.8-2.5-6.1-2.5c-2.4,0-4.4,0.8-6,2.5c-1.6,1.7-2.4,3.7-2.4,6V109z"/>
	<path class="st1" d="M236.6,59.2V61c0,1.3-0.4,2.4-1.3,3.3c-0.9,0.9-1.9,1.3-3.2,1.3c-1.3,0-2.3-0.4-3.2-1.3
		c-0.9-0.9-1.3-2-1.3-3.3v-1.8c0-1.2,0.4-2.3,1.3-3.2c0.9-0.9,2-1.3,3.2-1.3c1.3,0,2.3,0.4,3.2,1.3
		C236.1,56.9,236.6,57.9,236.6,59.2z M228.8,72.9c0.9-0.9,1.9-1.3,3.2-1.3c1.3,0,2.4,0.4,3.2,1.3c0.9,0.9,1.3,2,1.3,3.3V109
		c0,1.3-0.4,2.4-1.3,3.2c-0.9,0.9-1.9,1.3-3.2,1.3c-1.3,0-2.3-0.4-3.2-1.3c-0.9-0.9-1.3-2-1.3-3.2V76.2
		C227.5,74.9,227.9,73.8,228.8,72.9z"/>
	<path class="st1" d="M254.1,107.5c-3.9-4-5.9-8.9-5.9-14.7c0-5.8,2-10.8,5.9-15c3.9-4.2,8.7-6.3,14.3-6.3c4.3,0,8,1.2,11.3,3.5
		c0.2-1,0.8-1.8,1.6-2.5c0.8-0.7,1.8-1,3-1c1.1,0,2.2,0.4,3,1.3c0.9,0.9,1.3,1.9,1.3,3.2v32.4c0,5.5-2,10.3-5.9,14.2
		c-3.9,3.9-8.7,5.9-14.2,5.9c-3.2,0-6.1-0.7-8.8-2.1c-1.1-0.5-1.9-1.4-2.3-2.6c-0.4-1.2-0.3-2.4,0.3-3.5c0.6-1.1,1.4-1.9,2.6-2.3
		c1.1-0.4,2.3-0.3,3.5,0.2c1.5,0.8,3.3,1.2,5.5,1.2c2.2,0,4.3-0.9,6.4-2.6c2-1.7,3.3-3.8,3.9-6.4c-3.2,2.2-6.9,3.4-11,3.4
		C262.8,113.8,258.1,111.7,254.1,107.5z M257.3,92.7c0,3.3,1.1,6.1,3.2,8.5c2.1,2.4,4.8,3.5,7.9,3.5c3.2,0,5.8-1.1,7.9-3.4
		c2.1-2.3,3.2-5.2,3.2-8.6c0-3.4-1.1-6.3-3.2-8.7c-2.2-2.4-4.8-3.6-7.9-3.6c-3.1,0-5.7,1.2-7.9,3.7
		C258.4,86.6,257.3,89.4,257.3,92.7z"/>
	<path class="st1" d="M314.4,112.2c-0.9,0.9-2,1.3-3.3,1.3s-2.4-0.4-3.3-1.3c-0.9-0.9-1.4-2-1.4-3.3V59.3c0-1.3,0.4-2.4,1.3-3.3
		c0.9-0.9,2-1.3,3.3-1.3c1.3,0,2.4,0.4,3.3,1.3c0.9,0.9,1.4,2,1.4,3.3v14.6c3.1-1.6,6.1-2.4,9-2.4c5,0,9.4,1.8,12.9,5.4
		c3.6,3.6,5.4,7.9,5.4,13v19c0,1.3-0.4,2.4-1.3,3.3c-0.9,0.9-2,1.3-3.3,1.3c-1.3,0-2.4-0.4-3.3-1.3c-0.9-0.9-1.3-2-1.3-3.3v-19
		c0-2.5-0.9-4.6-2.6-6.3c-1.8-1.8-3.9-2.7-6.4-2.7c-2.5,0.1-4.6,1-6.3,2.7c-1.7,1.8-2.6,3.9-2.7,6.3v19
		C315.8,110.2,315.3,111.3,314.4,112.2z"/>
	<path class="st1" d="M372.2,71.5c1.3,0,2.4,0.4,3.3,1.3c0.9,0.9,1.4,2,1.4,3.2c0,1.3-0.5,2.4-1.4,3.3c-0.9,0.9-2,1.4-3.3,1.4h-2.1
		v23.4c1.3,0,2.4,0.5,3.3,1.4c0.9,0.9,1.3,2,1.3,3.3c0,1.3-0.4,2.4-1.3,3.3c-0.9,0.9-2,1.3-3.3,1.3c-2.6,0-4.8-0.9-6.6-2.7
		c-1.8-1.8-2.7-4-2.7-6.6V80.7h-2.4c-1.3,0-2.4-0.4-3.3-1.3c-0.9-0.9-1.3-2-1.3-3.3c0-1.3,0.4-2.4,1.3-3.3c0.9-0.9,2-1.3,3.3-1.3
		h2.4V59.3c0-1.3,0.5-2.4,1.4-3.3c0.9-0.9,2-1.3,3.3-1.3c1.3,0,2.4,0.4,3.3,1.3c0.9,0.9,1.3,2,1.3,3.3v12.2H372.2z"/>
	<path class="st1" d="M417.5,76.1c1,0.7,1.6,1.6,1.9,2.8c0.3,1.2,0.1,2.3-0.5,3.4c-0.7,1-1.6,1.6-2.8,1.9c-1.2,0.3-2.3,0-3.4-0.7
		c-3.1-2.1-5.7-3.1-7.8-3.1c-2,0-3.7,0.5-5,1.5c-0.9,0.6-1.3,1.2-1.3,1.6c0,0.5,0.1,0.8,0.2,1c0.1,0.2,0.4,0.5,0.9,0.8
		c1.2,0.8,3.3,1.5,6.1,2l0.1,0.1h0.1c3,0.6,5.7,1.4,8.1,2.5c2.5,1.1,4.3,2.7,5.5,4.6c1.2,2,1.8,3.9,1.8,5.8c0,3.9-1.8,7.2-5.3,9.7
		c-3.2,2.2-6.9,3.4-10.9,3.4c-5.2-0.1-10.2-2-15-5.8c-0.9-0.7-1.4-1.7-1.6-3c-0.1-1.3,0.2-2.3,1-3.2c0.7-1,1.7-1.6,3-1.7
		c1.3-0.1,2.4,0.2,3.3,1c3,2.5,6.1,3.8,9.2,3.7c2.1,0,4-0.5,5.7-1.6c1-0.8,1.5-1.6,1.5-2.1c0-0.6-0.1-1-0.3-1.2
		c-0.1-0.3-0.5-0.6-1.1-1c-1.3-1-3.6-1.7-6.7-2.4h-0.1c-3-0.6-5.6-1.4-7.8-2.4c-2.2-1.1-4-2.6-5.3-4.6c-1-1.6-1.4-3.3-1.4-5.3
		c0-3.6,1.7-6.7,5-9.2c3-2.1,6.5-3.1,10.4-3.1C408.9,71.5,413,73,417.5,76.1z"/>
	<path class="st1" d="M440.8,112.2c-0.9,0.9-2,1.3-3.3,1.3c-1.3,0-2.4-0.4-3.3-1.3c-0.9-0.9-1.4-2-1.4-3.3V59.3
		c0-1.3,0.4-2.4,1.3-3.3c0.9-0.9,2-1.3,3.3-1.3c1.3,0,2.4,0.4,3.3,1.3c0.9,0.9,1.4,2,1.4,3.3v14.6c3.1-1.6,6.1-2.4,9-2.4
		c5,0,9.4,1.8,12.9,5.4c3.6,3.6,5.4,7.9,5.4,13v19c0,1.3-0.4,2.4-1.3,3.3c-0.9,0.9-2,1.3-3.3,1.3c-1.3,0-2.4-0.4-3.3-1.3
		c-0.9-0.9-1.3-2-1.3-3.3v-19c0-2.5-0.9-4.6-2.6-6.3c-1.8-1.8-3.9-2.7-6.4-2.7c-2.5,0.1-4.6,1-6.3,2.7c-1.7,1.8-2.6,3.9-2.7,6.3v19
		C442.2,110.2,441.7,111.3,440.8,112.2z"/>
	<path class="st1" d="M493.5,59.2V61c0,1.3-0.4,2.4-1.3,3.3c-0.9,0.9-1.9,1.3-3.2,1.3c-1.3,0-2.3-0.4-3.2-1.3
		c-0.9-0.9-1.3-2-1.3-3.3v-1.8c0-1.2,0.4-2.3,1.3-3.2c0.9-0.9,2-1.3,3.2-1.3c1.3,0,2.3,0.4,3.2,1.3
		C493.1,56.9,493.5,57.9,493.5,59.2z M485.8,72.9c0.9-0.9,1.9-1.3,3.2-1.3c1.3,0,2.4,0.4,3.2,1.3c0.9,0.9,1.3,2,1.3,3.3V109
		c0,1.3-0.4,2.4-1.3,3.2c-0.9,0.9-1.9,1.3-3.2,1.3c-1.3,0-2.3-0.4-3.2-1.3c-0.9-0.9-1.3-2-1.3-3.2V76.2
		C484.5,74.9,484.9,73.8,485.8,72.9z"/>
	<path class="st1" d="M529.8,59.3c0,1.3-0.4,2.4-1.3,3.3c-0.9,0.9-2,1.4-3.4,1.4c-1.4,0-2.2,0.2-2.6,0.5c-0.2,0-0.4,0.5-0.5,1.4
		c-0.1,1-0.2,1.9-0.2,2.9v1.2h2.5c1.3,0,2.4,0.4,3.3,1.3c0.9,0.9,1.3,2,1.3,3.2c0,1.3-0.4,2.4-1.3,3.3c-0.9,0.9-2,1.4-3.3,1.4h-2.5
		v29.7c0,1.3-0.4,2.4-1.3,3.3c-0.9,0.9-2,1.3-3.3,1.3c-1.3,0-2.4-0.4-3.3-1.3c-0.9-0.9-1.3-2-1.3-3.3V79.1h-2.2
		c-1.3,0-2.4-0.4-3.3-1.3c-0.9-0.9-1.4-2-1.4-3.3s0.5-2.4,1.4-3.3c0.9-0.9,2-1.3,3.3-1.3h2.2v-1.2c0-9.4,4.2-14.1,12.7-14.1
		c1.2,0,2.3,0.5,3.2,1.4C529.4,56.9,529.8,58,529.8,59.3z"/>
	<path class="st1" d="M552.6,71.5c1.3,0,2.4,0.4,3.3,1.3c0.9,0.9,1.4,2,1.4,3.2c0,1.3-0.5,2.4-1.4,3.3c-0.9,0.9-2,1.4-3.3,1.4h-2.1
		v23.4c1.3,0,2.4,0.5,3.3,1.4c0.9,0.9,1.3,2,1.3,3.3c0,1.3-0.4,2.4-1.3,3.3c-0.9,0.9-2,1.3-3.3,1.3c-2.6,0-4.8-0.9-6.6-2.7
		c-1.8-1.8-2.7-4-2.7-6.6V80.7h-2.4c-1.3,0-2.4-0.4-3.3-1.3c-0.9-0.9-1.3-2-1.3-3.3c0-1.3,0.4-2.4,1.3-3.3c0.9-0.9,2-1.3,3.3-1.3
		h2.4V59.3c0-1.3,0.5-2.4,1.4-3.3c0.9-0.9,2-1.3,3.3-1.3c1.3,0,2.4,0.4,3.3,1.3c0.9,0.9,1.3,2,1.3,3.3v12.2H552.6z"/>
</g>
</svg>
