<?xml version="1.0" encoding="utf-8"?>
<!-- Generator: Adobe Illustrator 22.1.0, SVG Export Plug-In . SVG Version: 6.00 Build 0)  -->
<svg version="1.1" id="Layer_1" xmlns="http://www.w3.org/2000/svg" xmlns:xlink="http://www.w3.org/1999/xlink" x="0px" y="0px"
	 viewBox="0 0 657.8 166.7" style="enable-background:new 0 0 657.8 166.7;" xml:space="preserve">
<style type="text/css">
	.st0{fill:#48429B;}
	.st1{fill:none;}
</style>
<g>
	<g>
		<path class="st0" d="M88.8,24c-35.5,0-64.3,28.8-64.3,64.3c0,21,10.1,39.7,25.7,51.4v-36.8c3,5.3,7.1,9.8,12,13.4l-0.1,0.1
			l11.1,9.6v24.7c5,1.2,10.2,1.9,15.6,1.9c6.8,0,13.4-1.1,19.6-3.1l-42-36.1l0,0c-9.9-7-16.3-18.6-16.3-31.6
			c0-21.4,17.4-38.7,38.7-38.7c21.4,0,38.7,17.4,38.7,38.7c0,15.4-9,28.7-22,34.9l24.4,21c14.1-11.8,23.1-29.5,23.1-49.4
			C153.1,52.8,124.3,24,88.8,24z"/>
		<path class="st0" d="M73.2,81.8c0,8.6,7,15.7,15.7,15.7c8.6,0,15.7-7,15.7-15.7s-7-15.7-15.7-15.7C80.2,66.1,73.2,73.2,73.2,81.8z
			"/>
	</g>
	<g>
		<rect x="170.9" y="58.3" class="st1" width="555" height="74"/>
		<path class="st0" d="M217,108.3c0,0.9-0.3,1.7-0.9,2.3c-0.6,0.6-1.4,0.9-2.4,0.9c-1,0-1.7-0.3-2.3-0.9c-0.6-0.6-0.9-1.4-0.9-2.3
			v-2.2c0-3.9-0.4-6.7-1.3-8.6c-0.9-1.8-2-3.3-3.5-4.4c-1.5-1.1-3.6-1.6-6.3-1.6h-14.9v16.7c0,0.9-0.3,1.7-1,2.3
			c-0.6,0.6-1.4,0.9-2.3,0.9c-0.9,0-1.7-0.3-2.3-0.9c-0.6-0.6-0.9-1.4-0.9-2.3V64.3c0-0.9,0.3-1.7,0.9-2.3c0.6-0.6,1.4-1,2.3-1h16.8
			c6.6,0,11.5,1.4,14.9,4.2c3.1,2.6,4.7,6.1,4.7,10.4c0,2.8-0.8,5.4-2.3,7.8c-1.6,2.4-3.9,4.2-7.1,5.3c3.5,0.9,6,3.4,7.5,7.5
			c1,2.7,1.5,5.7,1.5,8.9V108.3z M197.5,85.4c4,0,7.3-0.8,9.8-2.4c2.5-1.6,3.7-3.9,3.7-7c0-2.9-1-5-2.9-6.5c-2.3-1.6-6-2.4-10.9-2.4
			h-12.7v18.3H197.5z"/>
		<path class="st0" d="M257.9,75.1c0.6,0.6,0.9,1.3,0.9,2c0,0.7-0.1,1.2-0.2,1.5l-19.7,47.2c-0.6,1.5-1.6,2.2-3,2.2
			c-0.9,0-1.6-0.3-2.2-0.9c-0.6-0.6-0.9-1.2-0.9-1.9c0-0.6,0.1-1.1,0.2-1.5l4.7-12l-13.5-33c-0.2-0.5-0.3-1.1-0.3-1.7
			c0-0.7,0.3-1.3,0.9-2c0.6-0.6,1.3-1,2.1-1c1.6,0,2.7,0.7,3.2,2l11.1,27.5l11.3-27.4c0.6-1.4,1.6-2.2,3-2.2
			C256.5,74.1,257.2,74.5,257.9,75.1z"/>
		<path class="st0" d="M272.8,79.2c3.6-3.6,7.7-5.5,12.3-5.5c4.7,0,8.6,1.7,12,5c3.6,3.6,5.5,8.4,5.5,14.1c0,5.9-1.8,10.6-5.5,14.2
			c-3.4,3.3-7.4,4.9-12,4.9c-4.6,0-8.7-1.8-12.3-5.5v18.4c0,1-0.3,1.8-0.9,2.4c-0.6,0.6-1.4,0.9-2.3,0.9s-1.7-0.3-2.3-0.9
			c-0.6-0.6-0.9-1.4-0.9-2.4V77.4c0-0.9,0.3-1.7,0.9-2.3c0.6-0.6,1.4-0.9,2.3-0.9s1.7,0.3,2.3,0.9c0.6,0.6,0.9,1.4,0.9,2.3V79.2z
			 M272.8,100.4c3.3,3.6,7.1,5.4,11.4,5.4c5.5,0,9.1-2.4,10.9-7.3c0.6-1.6,0.9-3.5,0.9-5.6c0-4.1-1.1-7.4-3.3-9.7
			c-2.1-2.2-4.9-3.2-8.5-3.2c-4.3,0-8.1,1.8-11.4,5.4V100.4z"/>
		<path class="st0" d="M319.8,102.9c2.1,1.9,4.9,2.9,8.6,2.9c3.7,0,6.8-0.6,9.3-1.9c0.9-0.4,1.6-0.6,2.2-0.6c0.6,0,1.2,0.3,1.8,0.8
			c0.6,0.5,0.9,1.1,0.9,1.8c0,1.2-0.5,2.1-1.5,2.7c-1,0.6-2,1-2.8,1.4c-0.8,0.4-1.7,0.7-2.7,1c-2.2,0.6-4.7,0.9-7.5,0.9
			c-5.9,0-10.5-1.7-13.8-5c-3.3-3.3-4.9-8-4.9-14.1c0-5.3,1.4-9.7,4.1-13.2c3.1-3.9,7.4-5.9,13.1-5.9c5.4,0,9.6,1.8,12.7,5.5
			c2.9,3.4,4.4,7.6,4.4,12.7c0,0.9-0.3,1.7-0.9,2.3c-0.6,0.6-1.4,0.9-2.4,0.9h-24.4C316.5,98.4,317.7,101,319.8,102.9z M326.7,79.3
			c-4.3,0-7.4,1.9-9.4,5.7c-0.7,1.3-1.1,3-1.2,4.8h21.2c-0.2-3.4-1.4-6.1-3.7-8.1C331.7,80.1,329.4,79.3,326.7,79.3z"/>
		<path class="st0" d="M403.4,102.3c0.4-0.2,0.9-0.3,1.6-0.3c0.7,0,1.3,0.3,1.8,0.8c0.5,0.6,0.8,1.2,0.8,1.9c0,1.3-0.5,2.2-1.6,2.7
			c-2.3,1.2-4.7,2.3-7.2,3.2c-2.6,0.9-5.6,1.3-9.2,1.3c-3.6,0-6.9-0.6-10-1.8c-3.1-1.2-5.7-2.9-8-5.1c-4.8-4.7-7.2-11-7.2-18.9
			s2.4-14.2,7.2-18.9c4.7-4.6,10.7-6.9,18-6.9c3.6,0,6.6,0.4,9.2,1.3c2.6,0.9,4.5,1.7,5.9,2.4c1.4,0.7,2.2,1.3,2.5,1.8
			c0.3,0.5,0.4,1,0.4,1.7c0,0.7-0.3,1.3-0.8,1.9c-0.5,0.6-1.1,0.8-1.8,0.8c-0.7,0-1.2-0.1-1.6-0.3c-1.9-1-3.9-1.8-5.9-2.4
			c-2-0.6-4.5-0.9-7.5-0.9c-3,0-5.7,0.5-8.1,1.5c-2.4,1-4.5,2.4-6.1,4.2c-3.2,3.5-4.8,8.1-4.8,13.9c0,5.8,1.6,10.4,4.8,13.9
			c3.5,3.8,8.3,5.7,14.5,5.7c2.8,0,5.3-0.3,7.3-0.9C399.5,104.1,401.5,103.3,403.4,102.3z"/>
		<path class="st0" d="M422.3,80.5c3.4-4.5,7.1-6.8,11.3-6.8h0.4c0.9,0,1.7,0.3,2.3,0.9c0.6,0.6,0.9,1.4,0.9,2.3s-0.3,1.7-0.9,2.2
			c-0.6,0.6-1.4,0.8-2.4,0.8h-0.4c-2.4,0-4.5,0.6-6.4,1.8c-1.9,1.2-3.5,2.7-4.7,4.6v21.9c0,0.9-0.3,1.7-1,2.3
			c-0.6,0.6-1.4,0.9-2.3,0.9c-0.9,0-1.7-0.3-2.3-0.9c-0.6-0.6-0.9-1.4-0.9-2.3V77.4c0-0.9,0.3-1.7,0.9-2.3c0.6-0.6,1.4-1,2.3-1
			c0.9,0,1.7,0.3,2.3,1c0.6,0.6,1,1.4,1,2.3V80.5z"/>
		<path class="st0" d="M451.8,102.9c2.1,1.9,4.9,2.9,8.6,2.9c3.7,0,6.8-0.6,9.3-1.9c0.9-0.4,1.6-0.6,2.2-0.6c0.6,0,1.2,0.3,1.8,0.8
			c0.6,0.5,0.9,1.1,0.9,1.8c0,1.2-0.5,2.1-1.5,2.7c-1,0.6-2,1-2.8,1.4c-0.8,0.4-1.7,0.7-2.7,1c-2.2,0.6-4.7,0.9-7.5,0.9
			c-5.9,0-10.5-1.7-13.8-5c-3.3-3.3-4.9-8-4.9-14.1c0-5.3,1.4-9.7,4.1-13.2c3.1-3.9,7.4-5.9,13.1-5.9c5.4,0,9.6,1.8,12.7,5.5
			c2.9,3.4,4.4,7.6,4.4,12.7c0,0.9-0.3,1.7-0.9,2.3c-0.6,0.6-1.4,0.9-2.4,0.9h-24.4C448.5,98.4,449.7,101,451.8,102.9z M458.7,79.3
			c-4.3,0-7.4,1.9-9.4,5.7c-0.7,1.3-1.1,3-1.2,4.8h21.2c-0.2-3.4-1.4-6.1-3.7-8.1C463.7,80.1,461.4,79.3,458.7,79.3z"/>
		<path class="st0" d="M486,76.4c4-1.7,8.2-2.6,12.5-2.6c4.9,0,8.7,1.5,11.4,4.5c2.4,2.6,3.6,5.8,3.6,9.7v20.4c0,0.9-0.3,1.7-1,2.3
			c-0.6,0.6-1.4,0.9-2.3,0.9c-0.9,0-1.7-0.3-2.3-0.9c-0.6-0.6-0.9-1.4-0.9-2.3v-1.9c-1.3,1.3-3,2.6-5.2,3.7c-2.2,1.2-5,1.7-8.3,1.7
			c-3.3,0-6.1-1-8.3-2.9c-2.3-2-3.5-4.7-3.5-7.9c0-3.6,1.3-6.3,4-8.4c2.9-2.2,7.1-3.3,12.5-3.3h8.7v-0.6c0-3.2-0.8-5.5-2.4-6.9
			c-1.6-1.4-4-2.1-7.3-2.1c-2.8,0-6,0.6-9.6,1.7c-0.4,0.1-0.8,0.1-1.3,0.1c-0.5,0-1-0.3-1.5-0.8c-0.5-0.5-0.8-1.3-0.8-2.3
			C484.2,77.7,484.8,76.9,486,76.4z M488.3,100.4c0,3.8,2.5,5.8,7.6,5.8c2.3,0,4.4-0.6,6.3-1.7c1.9-1.1,3.5-2.4,4.8-3.7v-6h-7.8
			c-3.4,0-6.1,0.4-8,1.3C489.2,96.9,488.3,98.4,488.3,100.4z"/>
		<path class="st0" d="M537.7,106.2c1.3,0,2.2-0.1,2.7-0.3c0.6-0.2,1.2-0.3,1.8-0.3c0.6,0,1.2,0.2,1.8,0.7c0.5,0.5,0.8,1.2,0.8,2.2
			c0,1-0.5,1.7-1.4,2.1c-2.1,1-3.8,1.4-5.3,1.4s-2.8-0.1-4-0.2c-1.2-0.1-2.4-0.6-3.5-1.2c-2.6-1.5-4-4.2-4-8.1V80.1h-5.1
			c-0.9,0-1.4-0.5-1.4-1.4c0-0.4,0.2-0.8,0.6-1.2l9.8-9.6c0.4-0.4,0.8-0.6,1.2-0.6c0.4,0,0.7,0.1,1,0.4c0.3,0.3,0.4,0.6,0.4,1v5.8
			h8.1c0.8,0,1.5,0.3,2,0.8c0.5,0.5,0.8,1.2,0.8,2c0,0.8-0.3,1.5-0.8,2c-0.5,0.5-1.2,0.8-2,0.8h-8.1v21.7c0,1.8,0.6,3.1,1.7,3.7
			C535.5,106,536.4,106.2,537.7,106.2z"/>
		<path class="st0" d="M559.4,63.3c0,1-0.4,1.9-1.1,2.6c-0.7,0.7-1.6,1.1-2.6,1.1h-0.4c-1,0-1.9-0.4-2.6-1.1
			c-0.7-0.7-1.1-1.6-1.1-2.6V63c0-1,0.4-1.9,1.1-2.6c0.7-0.7,1.6-1.1,2.6-1.1h0.4c1,0,1.9,0.4,2.6,1.1c0.7,0.7,1.1,1.6,1.1,2.6V63.3
			z M553.1,75.1c0.6-0.6,1.4-0.9,2.3-0.9c0.9,0,1.7,0.3,2.3,0.9c0.6,0.6,0.9,1.4,0.9,2.4v30.9c0,0.9-0.3,1.7-0.9,2.3
			c-0.6,0.6-1.4,0.9-2.3,0.9c-0.9,0-1.7-0.3-2.3-0.9c-0.6-0.6-0.9-1.4-0.9-2.3V77.4C552.2,76.5,552.5,75.7,553.1,75.1z"/>
		<path class="st0" d="M594.8,76c0.6-1.2,1.6-1.9,3.2-1.9c0.8,0,1.5,0.3,2.1,1s0.9,1.3,0.9,1.8c0,0.8-0.1,1.4-0.4,2l-12.5,30
			c-0.3,0.7-0.9,1.3-1.5,1.9c-0.7,0.5-1.5,0.8-2.4,0.8h-0.7c-0.9,0-1.7-0.3-2.4-0.8c-0.7-0.5-1.2-1.2-1.5-1.9L567,79
			c-0.2-0.6-0.4-1.2-0.4-1.9c0-0.7,0.3-1.3,0.9-2s1.3-1,2.1-1c1.5,0,2.6,0.6,3.2,1.9l11,27.9L594.8,76z"/>
		<path class="st0" d="M616.2,102.9c2.1,1.9,4.9,2.9,8.6,2.9c3.7,0,6.8-0.6,9.3-1.9c0.9-0.4,1.6-0.6,2.2-0.6c0.6,0,1.2,0.3,1.8,0.8
			c0.6,0.5,0.9,1.1,0.9,1.8c0,1.2-0.5,2.1-1.5,2.7c-1,0.6-2,1-2.8,1.4c-0.8,0.4-1.7,0.7-2.7,1c-2.2,0.6-4.7,0.9-7.5,0.9
			c-5.9,0-10.5-1.7-13.8-5c-3.3-3.3-4.9-8-4.9-14.1c0-5.3,1.4-9.7,4.1-13.2c3.1-3.9,7.4-5.9,13.1-5.9c5.4,0,9.6,1.8,12.7,5.5
			c2.9,3.4,4.4,7.6,4.4,12.7c0,0.9-0.3,1.7-0.9,2.3c-0.6,0.6-1.4,0.9-2.4,0.9h-24.4C612.9,98.4,614.1,101,616.2,102.9z M623.1,79.3
			c-4.3,0-7.4,1.9-9.4,5.7c-0.7,1.3-1.1,3-1.2,4.8h21.2c-0.2-3.4-1.4-6.1-3.7-8.1C628.1,80.1,625.8,79.3,623.1,79.3z"/>
	</g>
</g>
<g>
</g>
<g>
</g>
<g>
</g>
<g>
</g>
<g>
</g>
<g>
</g>
</svg>
